<?xml version="1.0" encoding="UTF-8"?>
<svg xmlns="http://www.w3.org/2000/svg" xmlns:xlink="http://www.w3.org/1999/xlink" width="50pt" height="50pt" viewBox="0 0 50 50" version="1.1">
<g id="surface9354094">
<path style=" stroke:none;fill-rule:nonzero;fill:rgb(0%,0%,0%);fill-opacity:1;" d="M 5 25 C 5 13.953125 13.953125 5 25 5 C 36.046875 5 45 13.953125 45 25 C 45 36.046875 36.046875 45 25 45 C 13.953125 45 5 36.046875 5 25 Z M 25 44 C 35.492188 44 44 35.492188 44 25 C 44 14.507812 35.492188 6 25 6 C 14.507812 6 6 14.507812 6 25 C 6 35.492188 14.507812 44 25 44 Z M 25 44 "/>
<path style=" stroke:none;fill-rule:nonzero;fill:rgb(0%,0%,0%);fill-opacity:1;" d="M 18.601562 16.601562 C 17.5 16.601562 16.601562 17.5 16.601562 18.601562 L 16.601562 31.398438 C 16.601562 32.5 17.5 33.398438 18.601562 33.398438 L 31.398438 33.398438 C 32.5 33.398438 33.398438 32.5 33.398438 31.398438 L 33.398438 18.601562 C 33.398438 17.5 32.5 16.601562 31.398438 16.601562 Z M 18.601562 17.398438 L 31.398438 17.398438 C 32.066406 17.398438 32.601562 17.933594 32.601562 18.601562 L 32.601562 31.398438 C 32.601562 32.066406 32.066406 32.601562 31.398438 32.601562 L 18.601562 32.601562 C 17.933594 32.601562 17.398438 32.066406 17.398438 31.398438 L 17.398438 18.601562 C 17.398438 17.933594 17.933594 17.398438 18.601562 17.398438 Z M 20.601562 19.40625 C 20.160156 19.40625 19.769531 19.535156 19.476562 19.78125 C 19.183594 20.027344 19.003906 20.394531 19.003906 20.785156 C 19.003906 21.535156 19.652344 22.117188 20.476562 22.171875 C 20.476562 22.171875 20.476562 22.175781 20.476562 22.175781 C 20.515625 22.1875 20.558594 22.195312 20.601562 22.195312 C 21.507812 22.195312 22.195312 21.558594 22.195312 20.785156 C 22.195312 20.78125 22.195312 20.773438 22.195312 20.765625 C 22.152344 20.003906 21.476562 19.40625 20.601562 19.40625 Z M 20.601562 20.195312 C 21.15625 20.195312 21.375 20.445312 21.402344 20.796875 C 21.394531 21.140625 21.183594 21.40625 20.601562 21.40625 C 20.046875 21.40625 19.796875 21.121094 19.796875 20.785156 C 19.796875 20.621094 19.855469 20.492188 19.984375 20.386719 C 20.113281 20.277344 20.316406 20.195312 20.601562 20.195312 Z M 19.398438 22.601562 C 19.179688 22.601562 19 22.777344 19 23 L 19 30.601562 C 19 30.820312 19.179688 31 19.398438 31 L 21.800781 31 C 22.019531 31 22.199219 30.820312 22.199219 30.601562 L 22.199219 23 C 22.199219 22.777344 22.019531 22.601562 21.800781 22.601562 Z M 23 22.601562 C 22.777344 22.601562 22.601562 22.777344 22.601562 23 L 22.601562 30.601562 C 22.601562 30.820312 22.777344 31 23 31 L 25.398438 31 C 25.621094 31 25.800781 30.820312 25.800781 30.601562 L 25.800781 26.601562 C 25.800781 26.269531 25.890625 25.9375 26.050781 25.722656 C 26.210938 25.503906 26.410156 25.375 26.792969 25.382812 C 27.1875 25.390625 27.394531 25.523438 27.554688 25.738281 C 27.710938 25.949219 27.800781 26.265625 27.800781 26.601562 L 27.800781 30.601562 C 27.800781 30.820312 27.980469 31 28.199219 31 L 30.601562 31 C 30.820312 31 31 30.820312 31 30.601562 L 31 26.304688 C 31 25.121094 30.648438 24.183594 30.046875 23.546875 C 29.445312 22.910156 28.609375 22.601562 27.726562 22.601562 C 26.882812 22.601562 26.246094 22.882812 25.800781 23.167969 L 25.800781 23 C 25.800781 22.777344 25.621094 22.601562 25.398438 22.601562 Z M 19.800781 23.398438 L 21.398438 23.398438 L 21.398438 30.199219 L 19.800781 30.199219 Z M 23.398438 23.398438 L 25 23.398438 L 25 24.023438 C 25 24.195312 25.109375 24.347656 25.273438 24.402344 C 25.4375 24.457031 25.617188 24.402344 25.71875 24.265625 C 25.71875 24.265625 26.347656 23.398438 27.726562 23.398438 C 28.425781 23.398438 29.027344 23.632812 29.46875 24.097656 C 29.90625 24.5625 30.199219 25.273438 30.199219 26.304688 L 30.199219 30.199219 L 28.601562 30.199219 L 28.601562 26.601562 C 28.601562 26.132812 28.488281 25.652344 28.195312 25.257812 C 27.902344 24.867188 27.414062 24.59375 26.808594 24.582031 C 26.199219 24.570312 25.699219 24.851562 25.40625 25.246094 C 25.113281 25.644531 25 26.132812 25 26.601562 L 25 30.199219 L 23.398438 30.199219 Z M 23.398438 23.398438 "/>
</g>
</svg>
